# xmcd
#
# Track frame offsets: 
#        150
#        18915
#        34160
#        52067
#        66967
#        84230
#        117182
#        135547
#        167710
#        187680
#        214752
#        231240
#        248252
#
# Disc length: 3439 seconds
#
# Revision: 1
# Processed by: cddbd v1.5.2PL0 Copyright (c) Steve Scherf et al.
# Submitted via: ExactAudioCopyFreeDBPlugin 1.0
#
DISCID=a20d6d0d
DTITLE=Lightnin' Hopkins - Rising Sun Live: Lightnin' Hopkins
DYEAR=1995
DGENRE=Blues
TTITLE0=Jones - Trouble In Mine
TTITLE1=Have Mercy
TTITLE2=Cook My Breakfast
TTITLE3=It's Hard To Love A Woman
TTITLE4=Get Up
TTITLE5=Katie Mae
TTITLE6=McKinley Morganfield - Goin' To Louisiana
TTITLE7=Forgot What To Say
TTITLE8=Lightnin' Boogie
TTITLE9=Coming Back Home
TTITLE10=Early In The Morning Blues
TTITLE11=My Baby Don't Stand No Cheating
TTITLE12=King - Joe Josea - Rock Me Baby
EXTD=
EXTT0=
EXTT1=
EXTT2=
EXTT3=
EXTT4=
EXTT5=
EXTT6=
EXTT7=
EXTT8=
EXTT9=
EXTT10=
EXTT11=
EXTT12=
PLAYORDER=
